# xmcd
# Copyright (C) 1995-1998 Ti Kan
#
# Track frame offsets:
#       150
#       14660
#       26311
#       44111
#       61450
#       84133
#       102443
#       116946
#       135835
#       150314
#       166134
#
# Disc length: 2899 seconds
#
# Revision: 0
# Processed by: cddbd v1.5.2PL0 Copyright (c) Steve Scherf et al.
# Submitted via: CD-Transfer v1.0
#
DISCID=830b510b
DTITLE=Silas Bürgi - Nüt Isch Zwenig, Öppis Wär Zviu [CD)
DYEAR=08
DGENRE=
TTITLE0=Vagabundus (Radio Edit)
TTITLE1=Ghüüslet (Radio Edit)
TTITLE2=Gstutzti Flügu (Radio Edit)
TTITLE3=Läbesretter (Radio Edit)
TTITLE4=Härzauerlieäschte (Radio Edit)
TTITLE5=E Ängu Weniger (Radio Edit)
TTITLE6=Schlossbou (Radio Edit)
TTITLE7=Wer Weiss (Radio Edit)
TTITLE8=Nüt Isch Zwenig (Radio Edit)
TTITLE9=Ihri Liechter (Radio Edit)
TTITLE10=Ohni Bedänke (Radio Edit)
EXTD=
EXTT0=
EXTT1=
EXTT2=
EXTT3=
EXTT4=
EXTT5=
EXTT6=
EXTT7=
EXTT8=
EXTT9=
EXTT10=
PLAYORDER=
